# xmcd
#
# Track frame offsets:
# 150
# 15110
# 22030
# 43602
# 63454
# 84292
# 100753
# 116038
# 133337
# 152878
# 168483
# 189761
# 202538
# 225025
# 240910
# 262674
# 278694
#
# Disc length: 4003 seconds
#
# Revision: 0
# Processed by: cddbd v1.4PL0 Copyright (c) Steve Scherf et al.
# Submitted via: Audion 3.0.2 (http://www.panic.com/audion/)
#
DISCID=bf0fa111
DTITLE=compilation - compilation
DYEAR=1900
DGENRE=
TTITLE0=compilation
TTITLE1=compilation
TTITLE2=compilation
TTITLE3=compilation
TTITLE4=compilation
TTITLE5=compilation
TTITLE6=compilation
TTITLE7=compilation
TTITLE8=compilation
TTITLE9=compilation
TTITLE10=compilation
TTITLE11=compilation
TTITLE12=compilation
TTITLE13=compilation
TTITLE14=compilation
TTITLE15=compilation
TTITLE16=compilation
EXTD=
EXTT0=
EXTT1=
EXTT2=
EXTT3=
EXTT4=
EXTT5=
EXTT6=
EXTT7=
EXTT8=
EXTT9=
EXTT10=
EXTT11=
EXTT12=
EXTT13=
EXTT14=
EXTT15=
EXTT16=
PLAYORDER=
